<svg width="26" height="27" fill="none" xmlns="http://www.w3.org/2000/svg" iconsize="26" class="sc-ftTHYK htVgvN"><path fill="#fff" d="M0 .657h26v26H0z"/><circle cx="13" cy="13.656" r="10.743" stroke="#616173" stroke-width="0.8"/><path d="m9.836 9.87-.066.395.066-.394Zm6.364.001.067.394-.067-.394Zm-2.571 1.872-.4.022.4-.022Zm-1.221 0-.4-.022.4.022Zm8.851-.423-.32-.24.32.24Zm-.036.089-.396-.051.396.05Zm.443-.632.32.24-.32-.24Zm-16.853.632-.397.05.397-.05Zm9.28-.799-.26-.304.26.304Zm-2.15 0-.26.305.26-.305Zm.47.944-.39-.085.39.085Zm-.003.045-.4.01.4-.01Zm-8.04-.822-.32.24.32-.24Zm9.257.794-.4-.017.4.017Zm-.005-.052-.388.095.389-.095Zm-9.689-1.71v.857h.8v-.858h-.8Zm5.97-.332c-1.161-.197-3.978-.25-5.384-.254l-.003.8c1.43.004 4.171.06 5.254.242l.133-.788Zm2.3.829c-.56-.477-1.437-.683-2.3-.83l-.133.79c.883.149 1.544.334 1.914.649l.519-.61Zm1.762-.047H12.07v.8h1.894v-.8Zm2.168-.782c-.863.146-1.74.352-2.3.829l.52.609c.37-.315 1.03-.5 1.914-.65l-.134-.788Zm5.384-.254c-1.406.004-4.223.057-5.384.254l.134.788c1.082-.183 3.824-.238 5.253-.242l-.003-.8Zm.586 1.443V9.81h-.8v.857h.8Zm-.524.894.407-.543-.64-.48-.407.543.64.48Zm-3.913 3.944c1.372 0 2.327-.632 2.95-1.46.613-.813.905-1.809 1.004-2.585l-.793-.101c-.088.684-.345 1.535-.85 2.205-.493.655-1.223 1.14-2.311 1.14v.8Zm-4.437-3.74c.037.681.266 1.617.942 2.388.688.785 1.797 1.352 3.495 1.352v-.8c-1.505 0-2.38-.494-2.894-1.08-.524-.598-.713-1.343-.744-1.903l-.799.044Zm-.001-.21a2.18 2.18 0 0 0 .001.21l.799-.043a1.393 1.393 0 0 1-.001-.133l-.8-.034Zm-.423.085a.676.676 0 0 1 .143-.318c.043-.047.07-.047.073-.047.001 0 .026-.001.068.04a.63.63 0 0 1 .145.3l.777-.19c-.128-.525-.488-.961-1.008-.95-.517.011-.863.46-.98.995l.782.17Zm.002.126c.003-.06.004-.119.003-.176l-.8.02c0 .036 0 .073-.002.112l.799.044ZM8.37 15.504c1.698 0 2.808-.567 3.495-1.352.677-.771.905-1.707.942-2.387l-.799-.044c-.03.56-.22 1.305-.744 1.904-.513.585-1.389 1.079-2.894 1.079v.8Zm-3.954-4.045c.1.776.391 1.773 1.004 2.585.623.828 1.578 1.46 2.95 1.46v-.8c-1.088 0-1.818-.486-2.311-1.141-.505-.67-.762-1.521-.85-2.205l-.793.101Zm-.366-.442.407.543.64-.48-.407-.543-.64.48Zm16.89.063a.588.588 0 0 0-.113.278l.793.101a.214.214 0 0 1-.04.1l-.64-.48Zm.363-.414c0-.046.015-.091.043-.129l.64.48a.586.586 0 0 0 .117-.35h-.8Zm-16.094.692a.587.587 0 0 0-.112-.278l-.64.48a.213.213 0 0 1-.041-.1l.793-.102Zm8.756-.299a.598.598 0 0 0 .387-.144l-.518-.61a.202.202 0 0 1 .13-.046v.8Zm-2.281-.144c.1.086.236.144.387.144v-.8c.058 0 .103.022.132.047l-.52.609Zm9.836-.892a.216.216 0 0 1-.217-.214h.8a.584.584 0 0 0-.586-.586l.003.8Zm-9.497 1.446a.584.584 0 0 0-.013.14l.8-.02c0 .012 0 .03-.005.05l-.782-.17Zm-8.09-.803c0 .127.041.25.117.351l.64-.48a.214.214 0 0 1 .043.129h-.8Zm10.094.922a.587.587 0 0 0-.016-.164l-.777.19a.212.212 0 0 1-.006-.06l.799.034Zm-9.294-1.78a.216.216 0 0 1-.217.215l.003-.8a.584.584 0 0 0-.586.585h.8Z" fill="#616173"/><path d="M8.434 17.389c1.51 1.562 5.475 3.75 9.245 0" stroke="#616173" stroke-width="0.8" stroke-linecap="round"/></svg>