<svg width="26" height="27" fill="none" xmlns="http://www.w3.org/2000/svg" iconsize="26" class="sc-ftTHYK htVgvN"><path fill="#fff" d="M0 .657h26v26H0z" class=""/><g clip-path="url(#home_svg__a)"><path d="M2.92 22.308v-10.68l8.92-6.85c.63-.5 1.52-.52 2.17-.04l9.07 6.64v10.93c0 .99-.8 1.79-1.79 1.79H4.7c-.98 0-1.79-.79-1.79-1.79h.01Z" fill="#9F2089" class=""/><path d="M1.41 12.797c-.13 0-.28-.04-.39-.09a.765.765 0 0 1-.31-.25.953.953 0 0 1-.2-.67.92.92 0 0 1 .34-.61l9.85-7.8.04-.03c.65-.46 1.43-.7 2.22-.7.79 0 1.57.24 2.22.7l9.94 7.37c.1.07.18.16.24.26.06.11.1.21.12.33.02.12 0 .24-.02.36s-.08.22-.15.32c-.07.1-.16.18-.27.23-.11.06-.21.1-.34.12-.12.02-.24 0-.36-.02a.94.94 0 0 1-.32-.15l-9.9-7.34c-.34-.23-.73-.35-1.14-.35-.41 0-.8.13-1.14.35L2 12.597c-.17.13-.38.2-.59.2Z" fill="#60014A"/><path d="M16.95 12.848a2.775 2.775 0 0 0-3.95.03c0-.01-.02-.02-.03-.03a2.78 2.78 0 0 0-4.74 1.97v3.58a.792.792 0 0 0 1.35.56c.14-.14.23-.34.23-.56v-3.59c0-.66.53-1.19 1.19-1.19h.03c.66 0 1.19.53 1.19 1.19v3.59a.792.792 0 0 0 1.35.56c.15-.14.23-.34.23-.56v-3.59c0-.66.53-1.19 1.19-1.19h.03c.66 0 1.19.53 1.19 1.19v3.59a.792.792 0 0 0 1.35.56c.14-.14.23-.34.23-.56v-3.58c0-.77-.31-1.46-.81-1.96l-.03-.01Z" fill="#FF9D00" class=""/></g><defs><clipPath id="home_svg__a"><path fill="#fff" transform="translate(.5 2.657)" d="M0 0h25v21.43H0z"/></clipPath></defs></svg>