<svg width="26" height="27" fill="none" xmlns="http://www.w3.org/2000/svg" iconsize="26" class="sc-ftTHYK htVgvN"><g clip-path="url(#categories_svg__a)"><path fill="#fff" d="M0 .657h26v26H0z" class=""/><path d="M24.7 5.532v15.53c0 .607-.548 1.154-1.282 1.154H2.581c-.734 0-1.281-.547-1.281-1.154V5.532c0-.604.545-1.145 1.281-1.145h20.837c.737 0 1.282.54 1.282 1.145Z" stroke="#616173" stroke-width="0.743" class=""/><path d="M5.015 3.03h15.767c.574 0 1.03.458 1.03 1.012v19.232c0 .555-.456 1.013-1.03 1.013H5.015c-.574 0-1.03-.458-1.03-1.013V4.042c0-.554.456-1.012 1.03-1.012Z" fill="#fff" stroke="#616173" stroke-width="0.743" class=""/><path clip-rule="evenodd" d="M16.744 10.349c.075.075.187.075.272.01l1.312-1.163a.243.243 0 0 0 .047-.282c-.478-.909-1.116-1.621-1.369-1.893l-.272-.216c-.44-.234-1.115-.497-1.968-.647a1.595 1.595 0 0 1-1.182 1.331c-.037 0-.065.02-.103.02a1.43 1.43 0 0 1-.562 0c-.038 0-.066-.01-.103-.02a1.595 1.595 0 0 1-1.182-1.33c-.843.15-1.509.402-1.95.637a1.44 1.44 0 0 0-.3.234 9.26 9.26 0 0 0-1.359 1.884.243.243 0 0 0 .047.282l1.312 1.162c.085.066.197.066.272-.01l.872-.834c.188 1.735-.14 3.797-.637 5.541-.3 1.05-.59 2.053-.703 2.963v.065c-.113.844-.207 1.669-.047 2.672a.49.49 0 0 0 .468.403H16.8c.234 0 .44-.169.469-.403.15-.994.065-1.819-.047-2.672v-.065c-.113-.91-.403-1.913-.703-2.963-.497-1.744-.825-3.806-.638-5.54l.872.834h-.01Z" stroke="#616173" stroke-width="0.743" stroke-linejoin="round" class=""/></g><defs><clipPath id="categories_svg__a"><path fill="#fff" transform="translate(0 .657)" d="M0 0h26v26H0z"/></clipPath></defs></svg>