<svg width="26" height="27" fill="none" xmlns="http://www.w3.org/2000/svg" iconsize="26" class="sc-ftTHYK htVgvN"><g clip-path="url(#help_svg__a)"><path fill="#fff" d="M0 .657h26v26H0z"/><path fill="#fff" d="M0 .657h26v26H0z" class=""/><g clip-path="url(#help_svg__b)" fill="#666"><path d="M19.796 2.924a3.196 3.196 0 0 1 3.192 3.191v12.851a3.196 3.196 0 0 1-3.192 3.192h-6.43c-6.153 0-8.481.843-10.254 2.194a.167.167 0 0 1-.115.039.251.251 0 0 1-.24-.25V6.115a3.205 3.205 0 0 1 3.2-3.191h13.84Zm0-.767H5.958A3.96 3.96 0 0 0 2 6.115v18.036c0 .594.489 1.016 1.006 1.016a.88.88 0 0 0 .575-.201c1.649-1.265 3.853-2.042 9.785-2.042h6.43a3.96 3.96 0 0 0 3.958-3.958V6.116a3.96 3.96 0 0 0-3.958-3.959Z"/><path fill-rule="evenodd" clip-rule="evenodd" d="M11.813 14.194c0 .201.163.364.365.364h.335c.125 0 .23-.105.23-.23 0-.287.029-.536.096-.747.057-.211.172-.412.335-.614.163-.2.403-.43.71-.7.354-.287.651-.555.91-.804.259-.259.46-.537.594-.843.144-.307.21-.68.21-1.112 0-.786-.248-1.4-.747-1.84-.498-.45-1.198-.67-2.098-.67a5.616 5.616 0 0 0-2.32.478.484.484 0 0 0-.24.652c.116.268.442.393.71.278.173-.077.355-.134.546-.201a4.1 4.1 0 0 1 1.237-.173c.575 0 1.015.134 1.322.393.316.259.47.632.47 1.112 0 .306-.048.565-.144.776-.096.21-.25.431-.46.642-.21.21-.498.47-.863.776a4.48 4.48 0 0 0-.737.748 2.13 2.13 0 0 0-.365.757 3.959 3.959 0 0 0-.105.958h.01Zm.528 3.24a.724.724 0 0 0 .718-.72.724.724 0 0 0-.718-.718.724.724 0 0 0-.72.719c0 .393.327.718.72.718Z"/></g></g><defs><clipPath id="help_svg__a"><path fill="#fff" transform="translate(0 .657)" d="M0 0h26v26H0z"/></clipPath><clipPath id="help_svg__b"><path fill="#fff" transform="translate(2 2.157)" d="M0 0h21.754v23H0z"/></clipPath></defs></svg>